<svg xmlns="http://www.w3.org/2000/svg" width="200" height="40" viewBox="0 0 200 40">
  <!-- Clock Icon with improved visibility -->
  <g transform="translate(5, 5) scale(0.75)">
    <!-- Clock circle with white fill for better contrast -->
    <circle cx="20" cy="20" r="18" fill="white" stroke="#ffffff" stroke-width="2.5" />
    
    <!-- Hour and minute hands -->
    <line x1="20" y1="20" x2="20" y2="8" stroke="#1976d2" stroke-width="2.5" stroke-linecap="round" />
    <line x1="20" y1="20" x2="30" y2="25" stroke="#1976d2" stroke-width="2.5" stroke-linecap="round" />
    
    <!-- Center dot -->
    <circle cx="20" cy="20" r="1.5" fill="#1976d2" />
    
    <!-- Time markers -->
    <line x1="20" y1="4" x2="20" y2="6" stroke="#1976d2" stroke-width="2" />
    <line x1="36" y1="20" x2="34" y2="20" stroke="#1976d2" stroke-width="2" />
    <line x1="20" y1="36" x2="20" y2="34" stroke="#1976d2" stroke-width="2" />
    <line x1="4" y1="20" x2="6" y2="20" stroke="#1976d2" stroke-width="2" />
  </g>
  
  <!-- Pulse Wave -->
  <path d="M40,20 L50,20 L55,10 L60,30 L65,15 L70,25 L80,20" 
        fill="none" 
        stroke="white" 
        stroke-width="2.5" 
        stroke-linecap="round" 
        stroke-linejoin="round" />
  
  <!-- Convert text to path to ensure proper rendering -->
  <path d="M92.3,25h-2.4V11.8h2.4V25z M101.3,25h-2.3v-7.6c0-1.1-0.5-1.7-1.6-1.7c-1.2,0-2,0.8-2,2.4V25h-2.3v-9.8h2.2v1.2
    c0.6-1,1.6-1.5,2.8-1.5c1.9,0,3.2,1.3,3.2,3.3V25z M107.5,25.2c-1.1,0-2-0.3-2.7-0.8c-0.7-0.5-1.1-1.3-1.1-2.1h2.3
    c0.1,0.6,0.6,1,1.5,1c1.1,0,1.6-0.5,1.6-1.3c0-0.6-0.4-0.9-1.3-1.1l-1.5-0.2c-1.9-0.3-2.9-1.3-2.9-2.9c0-1.9,1.5-3.2,3.8-3.2
    c2.2,0,3.7,1.3,3.8,3.1h-2.2c-0.1-0.7-0.6-1.1-1.5-1.1c-0.9,0-1.4,0.4-1.4,1c0,0.5,0.3,0.8,1,0.9l1.7,0.3c1.9,0.3,2.9,1.3,2.9,2.9
    C111.4,23.9,109.9,25.2,107.5,25.2z M118.6,25.2c-3,0-5-2-5-5.1c0-3.1,2-5.1,5-5.1c3,0,5,2,5,5.1C123.6,23.2,121.6,25.2,118.6,25.2z
     M118.6,23.2c1.5,0,2.5-1.2,2.5-3.1c0-1.9-1-3.1-2.5-3.1c-1.5,0-2.5,1.2-2.5,3.1C116.1,22,117.1,23.2,118.6,23.2z M131.8,25h-2.3
    v-1.3c-0.6,1-1.6,1.5-2.8,1.5c-2.2,0-3.6-1.7-3.6-4.2v-5.8h2.3v5.4c0,1.6,0.7,2.4,1.9,2.4c1.3,0,2.1-0.9,2.1-2.6v-5.2h2.3V25z
     M141.7,25h-2.3v-1.2c-0.6,0.9-1.5,1.4-2.7,1.4c-2.2,0-3.7-1.8-3.7-5c0-3,1.5-4.9,3.9-4.9c1.1,0,1.9,0.4,2.5,1.2v-4.7h2.3V25z
     M137.3,23.2c1.3,0,2.1-1.1,2.1-3c0-1.9-0.8-3-2.1-3c-1.3,0-2.1,1-2.1,3C135.2,22.1,136,23.2,137.3,23.2z M146.6,25h-2.4V11.8h2.4
    V25z M152.8,25.2c-2.9,0-4.9-2-4.9-5.1c0-3.1,2-5.1,4.9-5.1c2.5,0,4.4,1.6,4.7,3.8h-2.4c-0.2-1-1-1.7-2.2-1.7c-1.5,0-2.5,1.2-2.5,3
    c0,1.9,1,3.1,2.5,3.1c1.2,0,2-0.7,2.3-1.7h2.3C157.1,23.6,155.3,25.2,152.8,25.2z M164.2,25.2c-3,0-5-2-5-5.1c0-3.1,2-5.1,5-5.1
    c3,0,5,2,5,5.1C169.2,23.2,167.2,25.2,164.2,25.2z M164.2,23.2c1.5,0,2.5-1.2,2.5-3.1c0-1.9-1-3.1-2.5-3.1c-1.5,0-2.5,1.2-2.5,3.1
    C161.7,22,162.7,23.2,164.2,23.2z" fill="white"/>
</svg>
